<?xml version="1.0" encoding="UTF-8"?>
<svg width="42px" height="20px" viewBox="0 0 42 20" version="1.1" xmlns="http://www.w3.org/2000/svg" xmlns:xlink="http://www.w3.org/1999/xlink">
    <!-- Generator: Sketch 55 (78076) - https://sketchapp.com -->
    <title>Fill 1</title>
    <desc>Created with Sketch.</desc>
    <g id="Page-1" stroke="none" stroke-width="1" fill="none" fill-rule="evenodd">
        <g id="merlin-Statistics-piechart1" transform="translate(-24.000000, -19.000000)" fill="#FFC832">
            <g id="SideBar">
                <g id="Logo">
                    <path d="M66,21.9414047 C66,20.3165414 64.6752826,19 63.0433328,19 L59.9099894,19 C59.7538898,19.0014111 59.6119811,19.0627932 59.5062592,19.1615691 L53.22751,25.0232123 C51.0768841,27.032596 48.1833663,28.1607578 45.0003548,28.1607578 C41.6832396,28.1607578 38.6818712,26.9288814 36.5071208,24.7692172 C36.5071208,24.7692172 31.8901221,20.4562388 31.8496782,20.4174339 C30.9634585,19.5975941 29.7437535,19.0310438 28.3395672,19 L24.5910496,19 C24.2646597,19 24,19.2631672 24,19.5877165 L24,36.0585953 C24,37.6834586 25.3232984,39 26.9573767,39 L28.1018702,39 L28.875982,38.9992945 C29.203791,38.9992945 29.4698697,38.7340107 29.4698697,38.4080502 L29.4712888,32.5471126 C29.4712888,31.0153808 30.7285997,29.7524606 32.2441843,29.7524606 C35.0653287,29.7524606 37.0882368,32.1555367 38.9160205,33.7599393 C41.1546298,35.726285 42.8788201,37.6213709 45.0003548,37.6213709 C47.1204703,37.6213709 48.8446607,35.726285 51.0839795,33.7599393 C52.9124728,32.1555367 54.9346713,29.7524606 57.7543966,29.7524606 C59.2621763,29.7524606 60.5138108,31.0026811 60.5280016,32.5224186 L60.5280016,36.0585953 C60.5280016,37.6834586 61.8520095,38.9964723 63.4867974,38.9964723 L64.7632659,38.9964723 C65.0974608,38.9964723 65.4061122,39 65.4061122,39 L65.4068218,38.9992945 C65.7339212,38.9992945 66,38.7340107 66,38.4087558 L66,21.9414047" id="Fill-1"></path>
                </g>
            </g>
        </g>
    </g>
</svg>